<svg width="25" height="25" viewBox="0 0 25 25" fill="none" xmlns="http://www.w3.org/2000/svg">
<path d="M25 12.4141C25 5.55798 19.4036 0.0384595 12.5 0.0859027C5.59644 0.133346 -8.48177e-07 5.72978 -5.46406e-07 12.5859C-2.44634e-07 19.442 5.59645 24.9615 12.5 24.9141C19.4036 24.8667 25 19.2702 25 12.4141Z" fill="url(#paint0_radial_1222_1347)"/>
<path d="M17.3372 19.6978C17.3372 20.3323 15.029 20.4637 12.3492 20.4637C9.66932 20.4637 7.62985 20.3336 7.62985 19.6978C7.62985 19.062 9.80287 18.5488 12.4837 18.5488C15.1645 18.5488 17.3372 19.0633 17.3372 19.6978Z" fill="url(#paint1_radial_1222_1347)"/>
<path d="M19.4491 14.6898C19.5385 16.0644 19.0442 16.5864 17.6728 16.6846C16.3014 16.7828 15.6838 16.308 15.5954 14.9337C15.507 13.5593 16.2964 12.3902 17.3609 12.3229C18.4253 12.2555 19.3598 13.3154 19.4491 14.6898Z" fill="url(#paint2_radial_1222_1347)"/>
<path d="M18.0272 14.9603C18.0272 15.3327 17.7997 15.6348 17.5187 15.6348C17.2378 15.6348 17.0103 15.3327 17.0103 14.9603C17.0103 14.5879 17.2381 14.2861 17.5187 14.2861C17.7993 14.2861 18.0272 14.5879 18.0272 14.9603Z" fill="#282872"/>
<path d="M20.9494 12.6277C18.7813 13.2203 16.9984 13.3871 14.7502 13.3809C14.4327 13.3809 14.067 13.2469 14.0518 12.9464C14.0188 12.3285 14.2141 11.5887 14.3453 10.9841C14.4112 10.6804 14.7548 10.5324 15.0378 10.5961C15.3461 10.6654 15.4928 10.9961 15.4311 11.2791C15.3608 11.6032 15.3196 11.9329 15.3081 12.2641C17.2866 12.2245 18.7804 12.0859 20.6922 11.6888C20.991 11.6267 21.263 11.654 21.3438 11.9441C21.3811 12.0863 21.3608 12.2372 21.2872 12.3648C21.2135 12.4924 21.0924 12.5867 20.9494 12.6277Z" fill="#CE5400"/>
<path d="M5.6626 14.7575C5.57324 16.1318 6.06753 16.6538 7.43894 16.752C8.81034 16.8502 9.42795 16.3757 9.51632 15.0011C9.6047 13.6264 8.81529 12.4576 7.75087 12.3902C6.68646 12.3229 5.75196 13.3815 5.6626 14.7575Z" fill="url(#paint3_radial_1222_1347)"/>
<path d="M7.08453 15.0265C7.08453 15.3989 7.31205 15.7007 7.593 15.7007C7.87394 15.7007 8.10146 15.3989 8.10146 15.0265C8.10146 14.6542 7.87361 14.3521 7.593 14.3521C7.31238 14.3521 7.08453 14.6542 7.08453 15.0265Z" fill="#282872"/>
<path d="M3.61321 11.9446C3.69399 11.6545 3.96603 11.6272 4.26478 11.6893C6.1773 12.0864 7.67169 12.2249 9.64884 12.2646C9.63754 11.9333 9.59638 11.6036 9.52584 11.2795C9.46418 10.9962 9.61092 10.6655 9.91924 10.5966C10.2028 10.5315 10.5457 10.6808 10.6117 10.9845C10.7436 11.5891 10.9368 12.3286 10.9052 12.9469C10.89 13.2474 10.5243 13.3807 10.2068 13.3814C7.95693 13.3875 6.174 13.2207 4.00758 12.6282C3.86461 12.5872 3.74347 12.4929 3.66984 12.3652C3.59621 12.2376 3.5759 12.0867 3.61321 11.9446Z" fill="#CE5400"/>
<path d="M20.6912 11.6893C18.7787 12.0864 17.2843 12.2249 15.3071 12.2646C15.3186 11.9333 15.3598 11.6036 15.4301 11.2795C15.4918 10.9962 15.3451 10.6655 15.0368 10.5966C14.7532 10.5315 14.4102 10.6808 14.3443 10.9845C14.2124 11.5891 14.0192 12.3286 14.0508 12.9469C14.066 13.2474 14.4317 13.3807 14.7492 13.3814C16.9991 13.3875 18.782 13.2207 20.9484 12.6282C21.091 12.587 21.2118 12.4927 21.2853 12.3652C21.3587 12.2378 21.3789 12.0871 21.3418 11.9452C21.262 11.6545 20.99 11.6272 20.6912 11.6893Z" fill="#CE5400"/>
<path d="M4.26472 11.6893C6.17723 12.0864 7.67163 12.2249 9.64877 12.2646C9.63747 11.9333 9.59631 11.6036 9.52578 11.2795C9.46412 10.9962 9.61086 10.6655 9.91917 10.5966C10.2027 10.5315 10.5457 10.6808 10.6116 10.9845C10.7435 11.5891 10.9368 12.3286 10.9051 12.9469C10.8899 13.2474 10.5242 13.3807 10.2067 13.3814C7.95686 13.3875 6.17393 13.2207 4.00751 12.6282C3.86488 12.587 3.74407 12.4927 3.67066 12.3652C3.59725 12.2378 3.57697 12.0871 3.61412 11.9452C3.69392 11.6545 3.96597 11.6272 4.26472 11.6893Z" fill="#CE5400"/>
<defs>
<radialGradient id="paint0_radial_1222_1347" cx="0" cy="0" r="1" gradientUnits="userSpaceOnUse" gradientTransform="translate(13.5397 13.0564) rotate(-45) scale(15.0153 11.4641)">
<stop stop-color="#FF9C00"/>
<stop offset="1" stop-color="#FF6D41"/>
</radialGradient>
<radialGradient id="paint1_radial_1222_1347" cx="0" cy="0" r="1" gradientUnits="userSpaceOnUse" gradientTransform="translate(16.1282 27.6091) scale(3.15483 3.11146)">
<stop stop-color="#662E00"/>
<stop offset="1" stop-color="#220000"/>
</radialGradient>
<radialGradient id="paint2_radial_1222_1347" cx="0" cy="0" r="1" gradientUnits="userSpaceOnUse" gradientTransform="translate(17.5247 14.508) rotate(-0.182312) scale(2.14632 2.00945)">
<stop stop-color="#1B1464"/>
<stop offset="0.15" stop-color="#1B1556"/>
<stop offset="0.46" stop-color="#1A1740"/>
<stop offset="0.66" stop-color="#1A1838"/>
<stop offset="0.69" stop-color="#1A192F"/>
<stop offset="0.74" stop-color="#1A1923"/>
<stop offset="0.81" stop-color="#1A1A1C"/>
<stop offset="1" stop-color="#1A1A1A"/>
</radialGradient>
<radialGradient id="paint3_radial_1222_1347" cx="0" cy="0" r="1" gradientUnits="userSpaceOnUse" gradientTransform="translate(7.58699 14.5744) rotate(-179.818) scale(2.14632 2.00945)">
<stop stop-color="#1B1464"/>
<stop offset="0.15" stop-color="#1B1556"/>
<stop offset="0.46" stop-color="#1A1740"/>
<stop offset="0.66" stop-color="#1A1838"/>
<stop offset="0.69" stop-color="#1A192F"/>
<stop offset="0.74" stop-color="#1A1923"/>
<stop offset="0.81" stop-color="#1A1A1C"/>
<stop offset="1" stop-color="#1A1A1A"/>
</radialGradient>
</defs>
</svg>
