<svg width="26" height="25" viewBox="0 0 26 25" fill="none" xmlns="http://www.w3.org/2000/svg">
<path d="M12.5884 25C19.4445 25 24.9634 19.4036 24.9153 12.5C24.8672 5.59644 19.2702 0 12.4141 0C5.55798 0 0.0390109 5.59644 0.0871332 12.5C0.135256 19.4036 5.73225 25 12.5884 25Z" fill="url(#paint0_radial_1222_1368)"/>
<path d="M19.9629 8.93791C19.1236 8.36582 16.5497 7.79995 16.5497 7.79995L20.1053 6.02244C20.5343 5.80598 20.8389 5.43954 20.6227 5.01055C20.4066 4.58157 19.9894 4.58649 19.5611 4.80327L15.2486 7.08443C14.9329 7.24358 14.7574 7.462 14.7728 7.7934C14.7728 7.79733 14.7728 7.80093 14.7728 7.80486C14.7728 7.80879 14.7728 7.91915 14.7728 7.92308C14.7581 8.25448 14.9329 8.4729 15.2486 8.63205C15.7785 9.0689 18.0076 9.08003 19.8918 10.5022C20.2154 10.7465 20.704 10.3408 20.852 10.0045C20.9941 9.3646 20.0156 8.97361 19.9629 8.93791Z" fill="url(#paint1_radial_1222_1368)"/>
<path d="M21.266 13.2288C21.266 15.8544 19.9951 18.5718 18.0086 20.4207C16.5743 19.1412 14.6494 18.3576 12.5327 18.3576C10.4238 18.3576 8.50479 19.1347 7.07243 20.4053C5.09549 18.5564 3.83047 15.8466 3.83047 13.2278C6.7597 12.2879 9.61786 11.9316 12.5278 11.9316C15.4301 11.9326 18.5876 12.3538 21.266 13.2288Z" fill="url(#paint2_radial_1222_1368)"/>
<path d="M18.0087 20.4205C16.5148 21.8119 14.6154 22.3876 12.5484 22.3876C10.4742 22.3876 8.56935 21.8057 7.07248 20.4061C8.50516 19.1355 10.4238 18.3584 12.5327 18.3584C14.6495 18.3584 16.5744 19.1411 18.0087 20.4205Z" fill="url(#paint3_radial_1222_1368)"/>
<path d="M4.91403 8.93791C5.75366 8.36582 8.32758 7.79995 8.32758 7.79995L4.77191 6.02244C4.34292 5.80598 4.03805 5.43954 4.25451 5.01055C4.47096 4.58157 4.88783 4.58649 5.31584 4.80327L9.62862 7.08443C9.9443 7.24358 10.1198 7.462 10.1044 7.7934C10.1044 7.79733 10.1044 7.80093 10.1044 7.80486C10.1044 7.80879 10.1044 7.91915 10.1044 7.92308C10.1192 8.25448 9.9443 8.4729 9.62862 8.63205C9.09878 9.0689 6.86968 9.08003 4.98509 10.5022C4.66155 10.7465 4.17329 10.3408 4.02528 10.0045C3.88152 9.3646 4.86164 8.97361 4.91403 8.93791Z" fill="url(#paint4_radial_1222_1368)"/>
<defs>
<radialGradient id="paint0_radial_1222_1368" cx="0" cy="0" r="1" gradientUnits="userSpaceOnUse" gradientTransform="translate(10.2901 13.2347) rotate(44.3276) scale(16.7592 16.645)">
<stop stop-color="#FFFF82"/>
<stop offset="1" stop-color="#F7A900"/>
</radialGradient>
<radialGradient id="paint1_radial_1222_1368" cx="0" cy="0" r="1" gradientUnits="userSpaceOnUse" gradientTransform="translate(17.8189 7.61788) scale(3.00356 3.00356)">
<stop stop-color="#1B1464"/>
<stop offset="0.07" stop-color="#1B155D"/>
<stop offset="0.47" stop-color="#1A1839"/>
<stop offset="0.79" stop-color="#1A1922"/>
<stop offset="1" stop-color="#1A1A1A"/>
</radialGradient>
<radialGradient id="paint2_radial_1222_1368" cx="0" cy="0" r="1" gradientUnits="userSpaceOnUse" gradientTransform="translate(12.7753 23.1992) scale(16.1685 11.3616)">
<stop stop-color="#CC4500"/>
<stop offset="1" stop-color="#220000"/>
</radialGradient>
<radialGradient id="paint3_radial_1222_1368" cx="0" cy="0" r="1" gradientUnits="userSpaceOnUse" gradientTransform="translate(12.8648 22.4724) scale(7.24627 7.24627)">
<stop stop-color="#FF2756"/>
<stop offset="1" stop-color="#ED1E79"/>
</radialGradient>
<radialGradient id="paint4_radial_1222_1368" cx="0" cy="0" r="1" gradientUnits="userSpaceOnUse" gradientTransform="translate(7.05831 7.61788) rotate(180) scale(3.00356)">
<stop stop-color="#1B1464"/>
<stop offset="0.07" stop-color="#1B155D"/>
<stop offset="0.47" stop-color="#1A1839"/>
<stop offset="0.79" stop-color="#1A1922"/>
<stop offset="1" stop-color="#1A1A1A"/>
</radialGradient>
</defs>
</svg>
