<svg width="25" height="25" viewBox="0 0 25 25" fill="none" xmlns="http://www.w3.org/2000/svg">
<path d="M25 12.4141C25 5.55798 19.4036 0.03846 12.5 0.0859031C5.59644 0.133346 -8.48177e-07 5.72979 -5.46405e-07 12.5859C-2.44634e-07 19.442 5.59644 24.9615 12.5 24.9141C19.4036 24.8667 25 19.2702 25 12.4141Z" fill="url(#paint0_radial_1222_1374)"/>
<path d="M8.56143 10.498H6.40492C6.00506 10.498 5.67822 10.8336 5.67822 11.2435V17.3744C5.67822 17.7843 6.00571 18.1199 6.40492 18.1199H8.56143C8.9613 18.1199 9.28813 17.7843 9.28813 17.3744V11.2435C9.28813 10.8336 8.9613 10.498 8.56143 10.498Z" fill="#FDFDFD"/>
<path d="M18.3017 12.1472H18.173C18.4774 12.1463 18.769 12.0267 18.9842 11.8145C19.1994 11.6023 19.3207 11.3146 19.3215 11.0145C19.3207 10.7143 19.1994 10.4266 18.9842 10.2144C18.769 10.0021 18.4774 9.88238 18.173 9.88144H14.4881C14.9427 9.17539 15.559 8.04978 15.559 7.13024C15.559 5.67356 14.7501 4.86415 14.2229 4.77243C13.6956 4.6807 13.3085 4.95749 13.1562 5.39676C13.0039 5.83602 13.2735 6.66868 13.169 6.96583C13.0082 7.42415 12.1951 8.03751 11.0931 9.4312C10.1086 10.6766 10.2491 12.1478 10.2491 12.1478V17.1073C10.2497 17.2942 10.3253 17.4732 10.4593 17.6053C10.5933 17.7374 10.7749 17.8119 10.9643 17.8124H17.8089C18.0294 17.8118 18.2407 17.7251 18.3966 17.5714C18.5525 17.4176 18.6404 17.2092 18.641 16.9917C18.6404 16.7742 18.5525 16.5658 18.3966 16.412C18.2407 16.2582 18.0294 16.1716 17.8089 16.171H17.9261C18.1963 16.1702 18.4553 16.064 18.6464 15.8755C18.8374 15.6871 18.9451 15.4317 18.9459 15.1652C18.9451 14.8987 18.8374 14.6433 18.6464 14.4548C18.4553 14.2664 18.1963 14.1602 17.9261 14.1594H18.3011C18.5713 14.1586 18.8302 14.0524 19.0213 13.864C19.2124 13.6755 19.3201 13.4201 19.3209 13.1536C19.3203 12.8871 19.2127 12.6317 19.0218 12.4431C18.8308 12.2545 18.572 12.1481 18.3017 12.1472Z" fill="#FDFDFD"/>
<defs>
<radialGradient id="paint0_radial_1222_1374" cx="0" cy="0" r="1" gradientUnits="userSpaceOnUse" gradientTransform="translate(11.6474 1.71268) rotate(44.8018) scale(17.4526 13.6769)">
<stop stop-color="#29ABE2"/>
<stop offset="1" stop-color="#0064BC"/>
</radialGradient>
</defs>
</svg>
