<svg width="25" height="25" viewBox="0 0 25 25" fill="none" xmlns="http://www.w3.org/2000/svg">
<path d="M19.7089 15.3677C19.7417 15.302 19.7746 15.2593 19.7976 15.2593C19.8863 15.2593 20.0352 15.7614 20.1206 15.97C20.163 16.0742 20.2083 16.177 20.2556 16.2796C20.4692 16.7396 20.7213 17.1793 20.9355 17.6328C21.1836 18.1585 21.3226 18.7806 21.043 19.3293C20.8064 19.7943 20.3217 20.1032 19.8009 20.1032H19.7529C19.2314 20.0841 18.7309 19.768 18.5042 19.2942C18.2305 18.7221 18.4188 18.0826 18.6504 17.5496C18.886 17.0084 19.2068 16.4797 19.4591 15.9319C19.5248 15.7909 19.6251 15.5162 19.7085 15.3687L19.7089 15.3677ZM12.5 0C5.59641 0 0 5.59642 0 12.5C0 19.4036 5.59641 25 12.5 25C19.4036 25 25 19.4036 25 12.5C25 5.59642 19.4036 0 12.5 0Z" fill="url(#paint0_radial_1222_1378)"/>
<path d="M19.7249 13.5582C19.8139 14.9472 19.3213 15.4746 17.9544 15.5738C16.5874 15.6731 15.9722 15.1933 15.8842 13.8047C15.7961 12.416 16.5831 11.2347 17.6438 11.1666C18.7046 11.0986 19.6358 12.1692 19.7249 13.5582Z" fill="url(#paint1_radial_1222_1378)"/>
<path d="M18.3096 13.8316C18.3096 14.2078 18.0825 14.5131 17.8029 14.5131C17.5232 14.5131 17.2961 14.2078 17.2961 13.8316C17.2961 13.4553 17.5229 13.1504 17.8029 13.1504C18.0828 13.1504 18.3096 13.4553 18.3096 13.8316Z" fill="#282872"/>
<path d="M5.38387 13.6254C5.29482 15.0141 5.78773 15.5415 7.15438 15.6407C8.52103 15.74 9.1365 15.2605 9.22457 13.8716C9.31263 12.4826 8.52596 11.3016 7.46524 11.2335C6.40451 11.1655 5.47292 12.2364 5.38387 13.6254Z" fill="url(#paint2_radial_1222_1378)"/>
<path d="M7.30786 14.5802C7.5877 14.5802 7.81456 14.2752 7.81456 13.899C7.81456 13.5228 7.5877 13.2178 7.30786 13.2178C7.02801 13.2178 6.80115 13.5228 6.80115 13.899C6.80115 14.2752 7.02801 14.5802 7.30786 14.5802Z" fill="#282872"/>
<path fill-rule="evenodd" clip-rule="evenodd" d="M4.33985 9.23491C4.65662 8.8097 6.02098 8.03223 6.80732 7.9205C8.6189 7.66485 8.80423 8.12653 8.81179 8.49161C8.81935 8.92668 8.70993 8.99076 7.55128 8.95724C6.72978 8.93358 5.18534 9.58159 4.56264 10.2565C3.41155 11.5052 2.89795 10.9446 4.33985 9.23491Z" fill="url(#paint3_radial_1222_1378)"/>
<path fill-rule="evenodd" clip-rule="evenodd" d="M20.5992 9.23491C20.2824 8.8097 18.9177 8.03223 18.1317 7.9205C16.3201 7.66485 16.1348 8.12653 16.1273 8.49161C16.1194 8.92668 16.2288 8.99076 17.3878 8.95724C18.2093 8.93358 19.7537 9.58159 20.3764 10.2565C21.5275 11.5052 22.0411 10.9446 20.5992 9.23491Z" fill="url(#paint4_radial_1222_1378)"/>
<path d="M20.9359 17.6328C21.184 18.1586 21.323 18.7806 21.0434 19.3294C20.7995 19.8085 20.2922 20.122 19.7533 20.1023C19.2318 20.0832 18.7313 19.7671 18.5046 19.2933C18.2309 18.7212 18.4192 18.0817 18.6508 17.5487C18.8864 17.0075 19.2071 16.4788 19.4595 15.931C19.5505 15.7339 19.7135 15.2699 19.7983 15.2686C19.8831 15.2672 20.0211 15.7247 20.0963 15.912C20.3339 16.5064 20.6651 17.0594 20.9359 17.6328Z" fill="#5473A5"/>
<path d="M18.8601 17.166L18.8329 17.2197V17.2254L18.8611 17.166" fill="#275DA9"/>
<path d="M18.5115 17.9639C18.499 18.0056 18.4878 18.0477 18.4786 18.0897C18.4888 18.0519 18.5 18.0148 18.5115 17.9773C18.5115 17.9727 18.5115 17.9685 18.5115 17.9639Z" fill="#184E9F"/>
<path d="M19.217 17.2299C19.1546 17.3187 18.9213 17.711 18.8555 17.4166C18.8884 17.1622 19.0182 16.9178 19.1408 16.6963C19.2811 16.4436 19.399 16.2987 19.4365 16.3802C19.5075 16.6634 19.3369 16.9864 19.217 17.2299Z" fill="white" fill-opacity="0.22"/>
<path d="M19.6028 16.0287C19.5575 16.1772 19.4819 16.2646 19.454 16.2232C19.4319 16.1903 19.4628 16.0645 19.5095 15.9458C19.5562 15.8272 19.5995 15.7451 19.6222 15.753C19.6449 15.7609 19.6465 15.8851 19.6028 16.0287Z" fill="white" fill-opacity="0.22"/>
<path d="M19.591 16.4062C19.5562 16.51 19.5086 16.5537 19.4925 16.5047C19.4764 16.4558 19.499 16.3487 19.5339 16.2567C19.5687 16.1646 19.6032 16.1196 19.6183 16.1531C19.6334 16.1867 19.6239 16.3036 19.591 16.4062Z" fill="white" fill-opacity="0.22"/>
<path d="M19.8106 19.9459C19.2582 19.9357 18.7446 19.592 18.5566 19.0676C18.3594 18.5185 18.555 17.9326 18.7518 17.415C18.739 17.4433 18.7262 17.4719 18.7143 17.5005C18.4929 18.0338 18.2934 18.6614 18.5481 19.2286C18.7623 19.7051 19.2569 20.0133 19.7747 20.0277C20.5184 20.0488 21.1282 19.4504 21.1664 18.716C21.0951 19.4103 20.5174 19.9594 19.8106 19.9459Z" fill="white" fill-opacity="0.18"/>
<path fill-rule="evenodd" clip-rule="evenodd" d="M12.2398 20.6945C13.4444 20.6945 14.8183 21.0007 16.1143 21.4762C16.2382 21.5216 16.6345 21.6182 16.7985 21.4565C16.8625 21.3937 16.8773 21.2899 16.8566 21.1407C16.81 20.8164 16.5908 20.2896 16.0404 19.662C15.4003 18.9289 13.8095 18.249 12.2808 18.249C10.7344 18.249 9.15419 18.8957 8.50619 19.6219C7.94757 20.2443 7.72413 20.7687 7.67418 21.0924C7.65183 21.2413 7.66563 21.3451 7.72905 21.4089C7.89105 21.5732 8.28768 21.4795 8.41287 21.4358C9.72235 20.9784 11.0975 20.6945 12.2398 20.6945Z" fill="url(#paint5_radial_1222_1378)"/>
<defs>
<radialGradient id="paint0_radial_1222_1378" cx="0" cy="0" r="1" gradientUnits="userSpaceOnUse" gradientTransform="translate(12.5604 12.4989) scale(14.0615)">
<stop stop-color="#FFFF82"/>
<stop offset="1" stop-color="#F7A900"/>
</radialGradient>
<radialGradient id="paint1_radial_1222_1378" cx="0" cy="0" r="1" gradientUnits="userSpaceOnUse" gradientTransform="translate(17.8068 13.3745) rotate(-0.184852) scale(2.13888 2.03039)">
<stop stop-color="#1B1464"/>
<stop offset="0.15" stop-color="#1B1556"/>
<stop offset="0.46" stop-color="#1A1740"/>
<stop offset="0.66" stop-color="#1A1838"/>
<stop offset="0.69" stop-color="#1A192F"/>
<stop offset="0.74" stop-color="#1A1923"/>
<stop offset="0.81" stop-color="#1A1A1C"/>
<stop offset="1" stop-color="#1A1A1A"/>
</radialGradient>
<radialGradient id="paint2_radial_1222_1378" cx="0" cy="0" r="1" gradientUnits="userSpaceOnUse" gradientTransform="translate(7.30192 13.4417) rotate(-179.815) scale(2.13888 2.03039)">
<stop stop-color="#1B1464"/>
<stop offset="0.15" stop-color="#1B1556"/>
<stop offset="0.46" stop-color="#1A1740"/>
<stop offset="0.66" stop-color="#1A1838"/>
<stop offset="0.69" stop-color="#1A192F"/>
<stop offset="0.74" stop-color="#1A1923"/>
<stop offset="0.81" stop-color="#1A1A1C"/>
<stop offset="1" stop-color="#1A1A1A"/>
</radialGradient>
<radialGradient id="paint3_radial_1222_1378" cx="0" cy="0" r="1" gradientUnits="userSpaceOnUse" gradientTransform="translate(6.13533 9.39034) scale(2.18421)">
<stop stop-color="#FB8100"/>
<stop offset="1" stop-color="#ED6B00"/>
</radialGradient>
<radialGradient id="paint4_radial_1222_1378" cx="0" cy="0" r="1" gradientUnits="userSpaceOnUse" gradientTransform="translate(18.8037 9.39034) rotate(180) scale(2.18421 2.18422)">
<stop stop-color="#FB8100"/>
<stop offset="1" stop-color="#ED6B00"/>
</radialGradient>
<radialGradient id="paint5_radial_1222_1378" cx="0" cy="0" r="1" gradientUnits="userSpaceOnUse" gradientTransform="translate(12.4655 22.9053) scale(4.62309 4.62309)">
<stop stop-color="#662E00"/>
<stop offset="1" stop-color="#220000"/>
</radialGradient>
</defs>
</svg>
