<svg width="26" height="25" viewBox="0 0 26 25" fill="none" xmlns="http://www.w3.org/2000/svg">
<path d="M12.5871 25C19.4432 25 24.9625 19.4036 24.9147 12.5C24.8669 5.59644 19.2702 0 12.4141 0C5.55798 0 0.0387272 5.59644 0.0864995 12.5C0.134272 19.4036 5.73098 25 12.5871 25Z" fill="url(#paint0_radial_1222_1358)"/>
<path d="M16.8606 16.8236C17.0407 19.6336 16.1696 22.0268 13.5456 22.1116C10.6425 22.2065 9.75838 20.1006 9.57762 17.2906C9.39685 14.4805 10.8816 12.0979 12.8929 11.9688C14.9042 11.8398 16.6804 14.0136 16.8606 16.8236Z" fill="url(#paint1_linear_1222_1358)"/>
<path d="M20.0594 8.05777C20.1531 9.51632 19.3717 10.7538 18.3147 10.8216C17.2576 10.8894 16.3246 9.76192 16.231 8.30337C16.1373 6.84482 16.9187 5.60731 17.9761 5.53952C19.0335 5.47174 19.9661 6.59922 20.0594 8.05777Z" fill="url(#paint2_radial_1222_1358)"/>
<path d="M5.11871 8.64615C5.02538 10.1047 5.8064 11.3422 6.8638 11.41C7.9212 11.4778 8.85384 10.3503 8.94717 8.89175C9.0405 7.4332 8.25948 6.19569 7.2024 6.1279C6.14533 6.06012 5.21237 7.18759 5.11871 8.64615Z" fill="url(#paint3_radial_1222_1358)"/>
<path d="M5.40933 4.98679C5.30493 4.98672 5.20275 4.95666 5.11494 4.90018C5.02713 4.8437 4.9574 4.76319 4.91403 4.66821C4.87067 4.57324 4.8555 4.46781 4.87034 4.36446C4.88517 4.26112 4.92938 4.16421 4.99771 4.08527C5.08481 3.98506 5.88188 3.10122 6.95827 2.99217C8.04154 2.8828 8.95584 3.51612 8.99416 3.54298C9.05417 3.58363 9.10547 3.63584 9.14506 3.69656C9.18465 3.75727 9.21174 3.82527 9.22474 3.89658C9.23775 3.96789 9.2364 4.04108 9.22078 4.11186C9.20517 4.18264 9.17559 4.2496 9.13379 4.30882C9.09199 4.36803 9.0388 4.41832 8.97734 4.45674C8.91587 4.49515 8.84736 4.52094 8.77582 4.53256C8.70427 4.54419 8.63113 4.54143 8.56066 4.52446C8.49019 4.50748 8.42381 4.47663 8.36541 4.4337C8.36148 4.43108 7.74125 4.01093 7.0683 4.07643C6.51881 4.13243 5.98077 4.61872 5.81966 4.80145C5.7684 4.85978 5.70529 4.90649 5.63452 4.93846C5.56376 4.97042 5.48698 4.9869 5.40933 4.98679Z" fill="url(#paint4_radial_1222_1358)"/>
<path d="M19.5199 4.02588C19.6236 4.0141 19.7218 3.97276 19.8027 3.90678C19.8837 3.84079 19.9439 3.75294 19.9764 3.65368C20.0088 3.55443 20.012 3.44794 19.9857 3.3469C19.9593 3.24586 19.9045 3.15452 19.8277 3.08375C19.7294 2.99403 18.84 2.20548 17.7564 2.21792C16.6679 2.23102 15.8306 2.96324 15.7955 2.99435C15.6897 3.09108 15.6263 3.22559 15.6189 3.36876C15.6115 3.51193 15.6609 3.65224 15.7562 3.75931C15.8515 3.86639 15.9852 3.93162 16.1282 3.94087C16.2713 3.95013 16.4122 3.90267 16.5206 3.80877C16.5238 3.80549 17.093 3.31757 17.7692 3.30807C18.3216 3.30185 18.9108 3.72428 19.0912 3.88802C19.1488 3.94013 19.2168 3.97938 19.2907 4.00315C19.3646 4.02692 19.4427 4.03467 19.5199 4.02588Z" fill="url(#paint5_radial_1222_1358)"/>
<path d="M17.8824 8.04519C18.1613 8.04519 18.3874 7.74126 18.3874 7.36635C18.3874 6.99143 18.1613 6.6875 17.8824 6.6875C17.6035 6.6875 17.3774 6.99143 17.3774 7.36635C17.3774 7.74126 17.6035 8.04519 17.8824 8.04519Z" fill="#282872"/>
<path d="M6.52107 8.54617C6.79995 8.54617 7.02603 8.24224 7.02603 7.86732C7.02603 7.49241 6.79995 7.18848 6.52107 7.18848C6.24219 7.18848 6.01611 7.49241 6.01611 7.86732C6.01611 8.24224 6.24219 8.54617 6.52107 8.54617Z" fill="#282872"/>
<defs>
<radialGradient id="paint0_radial_1222_1358" cx="0" cy="0" r="1" gradientUnits="userSpaceOnUse" gradientTransform="translate(11.1418 14.087) rotate(46.3955) scale(21.3631 21.2082)">
<stop stop-color="#FFFF82"/>
<stop offset="1" stop-color="#F7A900"/>
</radialGradient>
<linearGradient id="paint1_linear_1222_1358" x1="13.1395" y1="24.1105" x2="13.0364" y2="13.9569" gradientUnits="userSpaceOnUse">
<stop stop-color="#CC4500"/>
<stop offset="1" stop-color="#220000"/>
</linearGradient>
<radialGradient id="paint2_radial_1222_1358" cx="0" cy="0" r="1" gradientUnits="userSpaceOnUse" gradientTransform="translate(18.1454 8.18057) scale(2.31129)">
<stop stop-color="#1B1464"/>
<stop offset="0.15" stop-color="#1B1556"/>
<stop offset="0.46" stop-color="#1A1740"/>
<stop offset="0.66" stop-color="#1A1838"/>
<stop offset="0.69" stop-color="#1A192F"/>
<stop offset="0.74" stop-color="#1A1923"/>
<stop offset="0.81" stop-color="#1A1A1C"/>
<stop offset="1" stop-color="#1A1A1A"/>
</radialGradient>
<radialGradient id="paint3_radial_1222_1358" cx="0" cy="0" r="1" gradientUnits="userSpaceOnUse" gradientTransform="translate(7.0331 8.76895) scale(2.31129)">
<stop stop-color="#1B1464"/>
<stop offset="0.15" stop-color="#1B1556"/>
<stop offset="0.46" stop-color="#1A1740"/>
<stop offset="0.66" stop-color="#1A1838"/>
<stop offset="0.69" stop-color="#1A192F"/>
<stop offset="0.74" stop-color="#1A1923"/>
<stop offset="0.81" stop-color="#1A1A1C"/>
<stop offset="1" stop-color="#1A1A1A"/>
</radialGradient>
<radialGradient id="paint4_radial_1222_1358" cx="0" cy="0" r="1" gradientUnits="userSpaceOnUse" gradientTransform="translate(7.04472 3.9831) scale(1.69695 1.69695)">
<stop stop-color="#FB8100"/>
<stop offset="1" stop-color="#ED6B00"/>
</radialGradient>
<radialGradient id="paint5_radial_1222_1358" cx="0" cy="0" r="1" gradientUnits="userSpaceOnUse" gradientTransform="translate(17.782 3.21245) rotate(-6.45) scale(1.69695)">
<stop stop-color="#FB8100"/>
<stop offset="1" stop-color="#ED6B00"/>
</radialGradient>
</defs>
</svg>
