<svg width="72" height="72" viewBox="0 0 72 72" fill="none" xmlns="http://www.w3.org/2000/svg">
<path d="M40.7767 36.001L54.1361 22.6416C54.7701 22.0087 55.1268 21.1498 55.1276 20.254C55.1283 19.3581 54.7732 18.4986 54.1403 17.8646C53.5074 17.2305 52.6485 16.8739 51.7527 16.8731C50.8568 16.8723 49.9973 17.2274 49.3633 17.8603L36.0039 31.2197L22.6445 17.8603C22.0105 17.2263 21.1506 16.8701 20.2539 16.8701C19.3572 16.8701 18.4973 17.2263 17.8633 17.8603C17.2292 18.4944 16.873 19.3543 16.873 20.251C16.873 21.1476 17.2292 22.0076 17.8633 22.6416L31.2227 36.001L17.8633 49.3603C17.2292 49.9944 16.873 50.8543 16.873 51.751C16.873 52.6476 17.2292 53.5076 17.8633 54.1416C18.4973 54.7756 19.3572 55.1318 20.2539 55.1318C21.1506 55.1318 22.0105 54.7756 22.6445 54.1416L36.0039 40.7822L49.3633 54.1416C49.9973 54.7756 50.8572 55.1318 51.7539 55.1318C52.6506 55.1318 53.5105 54.7756 54.1445 54.1416C54.7786 53.5076 55.1348 52.6476 55.1348 51.751C55.1348 50.8543 54.7786 49.9944 54.1445 49.3603L40.7767 36.001Z" fill="white"/>
</svg>
