<svg width="43" height="43" viewBox="0 0 43 43" fill="none" xmlns="http://www.w3.org/2000/svg">
<path d="M22.5558 42.4241L22.479 42.4116C22.4898 42.4199 22.5024 42.4254 22.5158 42.4276C22.5292 42.4298 22.543 42.4286 22.5558 42.4241Z" fill="black"/>
<path d="M40.015 14.9521C39.9931 14.8363 39.9331 14.7311 39.8446 14.6533C39.7561 14.5754 39.6441 14.5294 39.5265 14.5224C39.4088 14.5155 39.2922 14.548 39.1952 14.6149C39.0981 14.6818 39.0262 14.7792 38.9908 14.8916C38.9569 14.9984 38.8901 15.0916 38.7999 15.158C38.7097 15.2244 38.6008 15.2605 38.4888 15.2612H37.004C36.9079 15.2613 36.8136 15.235 36.7314 15.1853L34.5833 13.8973C34.5011 13.8476 34.4068 13.8213 34.3107 13.8214H30.8746C30.77 13.8213 30.6677 13.8524 30.5809 13.9107L26.3433 16.7354C26.27 16.7842 26.2101 16.8505 26.1688 16.9282C26.1276 17.006 26.1064 17.0928 26.1071 17.1808V21.1871C26.107 21.2831 26.1331 21.3773 26.1824 21.4597C26.2318 21.542 26.3027 21.6094 26.3874 21.6545L31.9438 24.6204C32.0273 24.6653 32.0973 24.7317 32.1466 24.8127C32.1958 24.8936 32.2226 24.9863 32.2241 25.0811L32.25 27.3357C32.2515 27.4291 32.2775 27.5203 32.3256 27.6004C32.3736 27.6804 32.4419 27.7464 32.5235 27.7916L34.7561 29.0269C34.8388 29.0729 34.9078 29.1401 34.9559 29.2215C35.0039 29.303 35.0294 29.3959 35.0296 29.4905V34.1552C35.0297 34.2572 35.0591 34.357 35.1144 34.4426C35.1697 34.5282 35.2485 34.5961 35.3415 34.638C35.4344 34.68 35.5374 34.6942 35.6382 34.6791C35.739 34.6639 35.8333 34.62 35.9098 34.5526C36.8101 33.7598 38.1011 32.6023 38.2729 32.3373C38.557 31.8977 38.8235 31.4476 39.0724 30.9869C39.5879 30.0323 40.0245 29.0372 40.3778 28.0114C41.5948 24.4879 40.6331 18.1541 40.015 14.9521Z" fill="black"/>
<path d="M24.4179 25.992L18.5313 21.5768C18.4648 21.5269 18.384 21.5 18.3009 21.5H15.5078C15.4601 21.5001 15.4127 21.4907 15.3686 21.4724C15.3244 21.4541 15.2844 21.4273 15.2506 21.3935L13.9337 20.0766C13.898 20.0409 13.8557 20.0127 13.8091 19.9934C13.7625 19.9741 13.7125 19.9642 13.6621 19.9643H8.55681C8.48486 19.9643 8.41453 19.943 8.3547 19.903C8.29488 19.863 8.24825 19.8062 8.22071 19.7397C8.19318 19.6733 8.18598 19.6001 8.20001 19.5295C8.21405 19.459 8.2487 19.3942 8.29958 19.3433L9.10775 18.5351C9.14149 18.5013 9.18159 18.4745 9.22574 18.4562C9.26988 18.4379 9.3172 18.4285 9.36498 18.4286H12.4719C12.6393 18.4286 12.802 18.3739 12.9354 18.2729C13.0688 18.1719 13.1656 18.0301 13.211 17.869L13.8723 15.5174C13.8864 15.4669 13.9107 15.4198 13.9437 15.379C13.9767 15.3382 14.0178 15.3047 14.0643 15.2804L16.7009 13.9232C16.7602 13.8925 16.81 13.8461 16.8447 13.7891C16.8794 13.732 16.8977 13.6665 16.8977 13.5997V12.3999C16.8978 12.3255 16.9205 12.2528 16.9629 12.1917L18.3643 10.1741C18.4063 10.1135 18.4659 10.0673 18.5351 10.0417L20.496 9.30547C20.5654 9.27947 20.6252 9.23291 20.6674 9.17202C20.7096 9.11113 20.7322 9.03881 20.7321 8.96473V7.87054C20.7321 7.81054 20.7173 7.75147 20.689 7.69856C20.6607 7.64566 20.6198 7.60055 20.5699 7.56723L18.6042 6.25996C18.5502 6.22442 18.4878 6.20376 18.4232 6.20005C18.3587 6.19635 18.2943 6.20972 18.2366 6.23884L15.5606 7.57683C15.4994 7.60706 15.4309 7.6194 15.363 7.61244C15.2951 7.60548 15.2305 7.57949 15.1767 7.53748L13.9078 6.53446C13.8645 6.49964 13.8297 6.45538 13.8062 6.40507C13.7826 6.35476 13.7708 6.29973 13.7717 6.24417C13.7726 6.18861 13.7862 6.134 13.8115 6.0845C13.8367 6.03501 13.873 5.99193 13.9174 5.95857L14.9483 5.19935C14.9949 5.16512 15.0327 5.12023 15.0585 5.06841C15.0843 5.0166 15.0973 4.95937 15.0965 4.9015C15.0956 4.84363 15.0809 4.78681 15.0536 4.73577C15.0264 4.68473 14.9873 4.64095 14.9396 4.6081L13.3338 3.48799C13.2782 3.44885 13.2128 3.42612 13.1449 3.42239C13.077 3.41866 13.0095 3.43407 12.9499 3.46688C12.3692 3.78458 10.6655 4.7252 10.0608 5.14848C7.26306 7.11048 5.01148 9.75318 3.51871 12.8271C3.34402 13.1879 3.12806 13.5556 3.10694 13.952C3.08583 14.3484 2.77484 15.2333 2.64527 15.5913C2.62779 15.6397 2.6208 15.6913 2.62478 15.7426C2.62875 15.7939 2.64358 15.8438 2.6683 15.8889L6.09391 22.1834C6.12473 22.2406 6.17051 22.2884 6.22636 22.3216L9.83049 24.485C9.87725 24.5129 9.91714 24.5509 9.94721 24.5963C9.97728 24.6416 9.99677 24.6932 10.0042 24.7471L10.726 29.9819C10.7331 30.0321 10.7504 30.0803 10.777 30.1234C10.8036 30.1665 10.8389 30.2036 10.8805 30.2325L13.6928 32.1655C13.7743 32.2215 13.831 32.3068 13.8512 32.4036L15.3427 39.4871C15.3511 39.5286 15.367 39.5683 15.3898 39.6042C15.5299 39.8307 16.0885 40.66 16.7623 40.7828C16.6999 40.8001 16.6443 40.8394 16.5819 40.8577C16.7437 40.8861 16.9039 40.9233 17.0618 40.969C17.2537 41.0208 17.4457 41.065 17.6377 41.1063C17.9381 41.1658 17.9679 41.2119 18.1118 40.945C18.3038 40.588 18.5236 40.4651 18.6877 40.421C18.7555 40.4053 18.8174 40.3709 18.8665 40.3217C18.9156 40.2725 18.9497 40.2104 18.9651 40.1426L19.9317 35.6622C19.952 35.5682 20.0068 35.4854 20.0852 35.4299L24.4044 32.3681C24.4546 32.3326 24.4955 32.2855 24.5238 32.2309C24.552 32.1763 24.5667 32.1157 24.5666 32.0542V26.2991C24.5672 26.2399 24.5541 26.1814 24.5282 26.1281C24.5024 26.0748 24.4647 26.0282 24.4179 25.992Z" fill="black"/>
<path d="M22.0759 1.53571C22.0759 1.53571 21.7256 1.55587 21.6545 1.55779C21.1343 1.57315 20.6154 1.60898 20.0977 1.66529C18.2106 1.87001 16.3625 2.34351 14.6094 3.07143C14.8427 3.23268 14.4415 3.38049 14.4415 3.38049L15.0692 4.60714H18.4286L20.7321 5.75893L22.7478 4.60714L22.0759 1.53571Z" fill="black"/>
<path d="M30.9283 8.45219L32.4746 7.10844C32.523 7.06643 32.5601 7.01297 32.5826 6.95294C32.605 6.89291 32.6121 6.82822 32.6031 6.76476C32.5941 6.7013 32.5694 6.6411 32.5312 6.58964C32.493 6.53818 32.4425 6.49711 32.3844 6.47016L30.579 5.63223C30.4872 5.58945 30.3823 5.58461 30.2871 5.61876C30.1918 5.65291 30.1139 5.72329 30.0702 5.8146L29.3264 7.37047C29.2859 7.45553 29.2781 7.55251 29.3045 7.64294C29.3308 7.73338 29.3895 7.81097 29.4694 7.86094L30.4734 8.48866C30.5431 8.53206 30.625 8.55193 30.7069 8.54537C30.7887 8.5388 30.8664 8.50614 30.9283 8.45219Z" fill="black"/>
<path d="M38.1663 10.4304L37.6068 9.56654C37.5981 9.5531 37.5904 9.53967 37.5828 9.52527C37.482 9.31891 36.6479 7.63442 35.9511 6.98078C35.428 6.48647 35.2792 6.62853 35.2379 6.73795C35.2143 6.79846 35.1749 6.85151 35.1237 6.89152L32.3556 9.12886C32.2874 9.18402 32.2024 9.21416 32.1147 9.21429H30.6817C30.6312 9.21425 30.5813 9.22414 30.5347 9.24341C30.4881 9.26268 30.4457 9.29094 30.41 9.32658L29.2582 10.4784C29.2225 10.514 29.1942 10.5564 29.1749 10.603C29.1556 10.6496 29.1456 10.6995 29.1456 10.75C29.1456 10.8005 29.1556 10.8504 29.1749 10.897C29.1942 10.9436 29.2225 10.986 29.2582 11.0216L30.41 12.1734C30.4457 12.2091 30.4881 12.2373 30.5347 12.2566C30.5813 12.2759 30.6312 12.2858 30.6817 12.2857H37.8966C37.9484 12.2858 37.9997 12.2753 38.0474 12.255C38.0951 12.2347 38.1382 12.205 38.174 12.1676C38.2099 12.1302 38.2378 12.0859 38.2562 12.0374C38.2745 11.9889 38.2828 11.9372 38.2806 11.8855L38.2278 10.6233C38.2249 10.5547 38.2037 10.488 38.1663 10.4304Z" fill="black"/>
<path d="M21.5 3.83929C25.5859 3.83895 29.5455 5.25536 32.7042 7.84719C35.8629 10.439 38.0251 14.0459 38.8226 18.0532C39.62 22.0606 39.0033 26.2204 37.0774 29.824C35.1516 33.4277 32.0359 36.252 28.2611 37.8159C24.4863 39.3798 20.286 39.5864 16.376 38.4006C12.4659 37.2148 9.08799 34.7099 6.81776 31.3127C4.54752 27.9155 3.52545 23.8363 3.92569 19.77C4.32593 15.7038 6.12371 11.9021 9.01272 9.01272C10.6486 7.36748 12.5946 6.06308 14.7381 5.17505C16.8816 4.28703 19.1799 3.83301 21.5 3.83929ZM21.5 0C9.62701 0 0 9.62701 0 21.5C0 33.373 9.62701 43 21.5 43C33.373 43 43 33.373 43 21.5C43 9.62701 33.373 0 21.5 0Z" fill="black"/>
</svg>
