<svg width="69" height="113" viewBox="0 0 69 113" fill="none" xmlns="http://www.w3.org/2000/svg">
<g clip-path="url(#clip0_961_371)">
<path d="M15.3512 47.0701C12.131 45.0194 9.4668 42.2015 7.59613 38.8675C5.63907 35.3665 4.62693 31.4138 4.65978 27.4003C4.69262 23.3867 5.76932 19.4513 7.78341 15.983C9.79751 12.5147 12.6793 9.6336 16.1438 7.62458C19.6083 5.61555 23.5357 4.54815 27.5376 4.52788C31.5395 4.50762 35.4774 5.5352 38.962 7.50903C42.4466 9.48287 45.3572 12.3346 47.4061 15.7823C49.455 19.2301 50.5713 23.1544 50.6445 27.1674C50.7178 31.1804 49.7455 35.1431 47.8238 38.6638C47.5352 39.1909 47.4672 39.8114 47.6348 40.3888C47.8024 40.9662 48.1918 41.4531 48.7174 41.7426C49.243 42.032 49.8617 42.1001 50.4374 41.9321C51.0131 41.764 51.4987 41.3734 51.7873 40.8463C54.1598 36.5057 55.3248 31.605 55.1602 26.6577C54.9955 21.7104 53.5073 16.8986 50.8515 12.7263C48.1956 8.55402 44.4698 5.17484 40.0645 2.94279C35.6591 0.710745 30.7363 -0.292026 25.8118 0.039532C20.8873 0.37109 16.1423 2.02477 12.0739 4.82734C8.00557 7.62991 4.76358 11.4782 2.68759 15.9691C0.6116 20.46 -0.221977 25.4281 0.274188 30.3531C0.770354 35.2781 2.578 39.9786 5.50775 43.9622C7.53333 46.7136 10.0487 49.0656 12.927 50.8997C13.4329 51.2096 14.04 51.3078 14.6174 51.1732C15.1948 51.0385 15.6964 50.6818 16.0142 50.1799C16.332 49.678 16.4405 49.0709 16.3163 48.4896C16.1922 47.9082 15.8453 47.399 15.3505 47.0715L15.3512 47.0701Z" fill="#231F20"/>
<path d="M15.5754 33.7957C14.502 31.6916 13.9933 29.3434 14.0993 26.9823C14.2054 24.6212 14.9226 22.3285 16.1803 20.3297C17.438 18.3309 19.1929 16.695 21.2724 15.5829C23.3518 14.4709 25.6841 13.9209 28.0398 13.9872C30.3955 14.0535 32.6934 14.7338 34.7074 15.9612C36.7213 17.1885 38.382 18.9205 39.526 20.9869C40.6699 23.0533 41.2577 25.3828 41.2316 27.7461C41.2054 30.1095 40.5661 32.4253 39.3767 34.4657C39.2023 34.8019 39.1633 35.1924 39.2677 35.5567C39.3721 35.9209 39.6121 36.231 39.938 36.4229C40.2638 36.6148 40.6507 36.6738 41.0188 36.5878C41.3868 36.5018 41.7079 36.2773 41.9156 35.9607C43.3633 33.4776 44.1415 30.6591 44.1736 27.7828C44.2056 24.9065 43.4904 22.0713 42.0982 19.5564C40.7061 17.0414 38.6851 14.9333 36.234 13.4395C33.783 11.9456 30.9864 11.1176 28.1194 11.0368C25.2524 10.956 22.4138 11.6253 19.883 12.9787C17.3522 14.3321 15.2163 16.3231 13.6856 18.7557C12.1549 21.1883 11.282 23.9787 11.153 26.8523C11.0239 29.7259 11.6431 32.5837 12.9495 35.1444C13.1279 35.4937 13.4372 35.7576 13.8096 35.878C14.1819 35.9985 14.5867 35.9657 14.9349 35.7868C15.2831 35.608 15.5462 35.2977 15.6663 34.9243C15.7865 34.5509 15.7538 34.1449 15.5754 33.7957Z" fill="#231F20"/>
<path d="M55.4092 69.5024H57.7928V59.7436C57.7945 59.0547 58.0156 58.3843 58.4239 57.8303C58.8322 57.2763 59.4064 56.8677 60.0626 56.6641C60.3782 56.5668 60.7066 56.5178 61.0368 56.5186H61.1767C61.5841 56.5171 61.9876 56.5985 62.3628 56.7579C62.7711 56.9313 63.137 57.1918 63.435 57.5211C63.733 57.8505 63.9559 58.241 64.0884 58.6654C64.1796 58.9601 64.2256 59.267 64.2248 59.5756V70.0938C64.2248 77.1878 63.6235 82.305 62.8466 85.9353C62.0697 89.5656 61.1231 91.7073 60.4427 92.8801C59.4635 94.5552 58.7766 96.3857 58.4116 98.2927C58.1513 99.6787 57.6512 101.008 56.934 102.221C55.8722 104.017 54.3712 105.512 52.573 106.564C50.7183 107.647 48.6095 108.216 46.4631 108.212H35.3603C32.5144 108.212 29.7587 107.211 27.5727 105.383C25.3867 103.556 23.9087 101.017 23.3958 98.2098C23.2072 97.1507 22.9217 96.1113 22.5428 95.1048C22.1579 94.0803 21.6678 93.0987 21.0804 92.1759L5.68994 68.0954L5.58403 67.9433C4.95962 67.1156 4.67884 66.0777 4.80055 65.047C4.92225 64.0163 5.43698 63.0728 6.23688 62.4143L4.72155 60.5657V62.9592C5.27424 62.9584 5.80964 62.7659 6.23688 62.4143C6.95914 61.8175 7.867 61.4933 8.8028 61.4979C9.7386 61.5026 10.6432 61.8358 11.3595 62.4397L20.1751 69.8603C20.5231 70.1524 20.9469 70.3389 21.3968 70.398C21.8468 70.457 22.3041 70.3862 22.7153 70.1937C23.1265 70.0013 23.4745 69.6952 23.7184 69.3114C23.9622 68.9277 24.0919 68.4821 24.0922 68.027V27.7078C24.0934 27.0189 24.3144 26.3484 24.7228 25.7945C25.1312 25.2405 25.7055 24.8321 26.3619 24.629C26.6775 24.5314 27.0059 24.4824 27.3361 24.4835H27.4761C27.8764 24.4828 28.273 24.5613 28.6429 24.7146C29.0129 24.8678 29.3491 25.0929 29.6321 25.3768C29.9152 25.6606 30.1396 25.9978 30.2924 26.3689C30.4452 26.7399 30.5235 27.1376 30.5227 27.5391V27.5449L30.6112 61.2568C30.6229 61.8843 30.8798 62.4821 31.3266 62.9214C31.7735 63.3608 32.3745 63.6065 33.0002 63.6058C33.626 63.605 34.2264 63.3578 34.6722 62.9174C35.118 62.4769 35.3734 61.8785 35.3835 61.251V50.4126C35.38 50.0058 35.4616 49.6029 35.6229 49.2297C35.7353 48.9731 35.8863 48.7354 36.0705 48.5247C36.3646 48.1931 36.7272 47.9297 37.1332 47.7528C37.596 47.552 38.0956 47.4501 38.5999 47.4538C39.0294 47.4526 39.4548 47.5385 39.8505 47.7063C40.2814 47.889 40.6675 48.1637 40.982 48.5112C41.2964 48.8587 41.5316 49.2707 41.6712 49.7186C41.7677 50.0294 41.8167 50.3532 41.8162 50.6789V64.7743C41.8107 65.0921 41.8684 65.4078 41.9858 65.703C42.1032 65.9982 42.2781 66.267 42.5002 66.4937C42.7224 66.7204 42.9873 66.9004 43.2795 67.0233C43.5718 67.1462 43.8855 67.2095 44.2024 67.2095C44.5193 67.2095 44.833 67.1462 45.1253 67.0233C45.4175 66.9004 45.6825 66.7204 45.9046 66.4937C46.1267 66.267 46.3016 65.9982 46.419 65.703C46.5364 65.4078 46.5941 65.0921 46.5886 64.7743V54.6183C46.5877 54.1873 46.6733 53.7605 46.8403 53.3634C47.0227 52.9312 47.2967 52.5439 47.6433 52.2286C47.9899 51.9133 48.4008 51.6774 48.8474 51.5373C49.1573 51.4404 49.4802 51.3913 49.8049 51.3918C50.2344 51.3909 50.6597 51.4768 51.0555 51.6443C51.4864 51.8272 51.8725 52.102 52.1869 52.4496C52.5013 52.7972 52.7365 53.2093 52.8762 53.6573C52.9729 53.9681 53.0218 54.292 53.0213 54.6176V69.5024C53.0157 69.8202 53.0734 70.1359 53.1908 70.4311C53.3082 70.7263 53.4831 70.9951 53.7052 71.2218C53.9274 71.4484 54.1923 71.6285 54.4845 71.7514C54.7768 71.8743 55.0905 71.9376 55.4074 71.9376C55.7243 71.9376 56.038 71.8743 56.3303 71.7514C56.6225 71.6285 56.8875 71.4484 57.1096 71.2218C57.3317 70.9951 57.5066 70.7263 57.624 70.4311C57.7414 70.1359 57.7991 69.8202 57.7936 69.5024V54.6183C57.7948 53.5659 57.589 52.5235 57.1881 51.5509C56.7871 50.5784 56.1988 49.6947 55.4568 48.9504C54.7148 48.2062 53.8337 47.6161 52.864 47.2138C51.8943 46.8116 50.855 46.6051 49.8056 46.6063C48.7564 46.6056 47.7172 46.8124 46.7477 47.2148C45.7782 47.6172 44.8973 48.2073 44.1553 48.9515C43.4134 49.6956 42.825 50.5791 42.4237 51.5515C42.0225 52.5238 41.8163 53.566 41.817 54.6183V64.7707C41.8115 65.0885 41.8691 65.4042 41.9865 65.6994C42.104 65.9946 42.2788 66.2634 42.501 66.49C42.7231 66.7167 42.988 66.8968 43.2802 67.0197C43.5725 67.1426 43.8862 67.2059 44.2031 67.2059C44.52 67.2059 44.8338 67.1426 45.126 67.0197C45.4183 66.8968 45.6832 66.7167 45.9053 66.49C46.1274 66.2634 46.3023 65.9946 46.4197 65.6994C46.5372 65.4042 46.5948 65.0885 46.5893 64.7707V50.6752C46.5899 49.6229 46.3838 48.5809 45.9826 47.6085C45.5814 46.6362 44.9931 45.7527 44.2512 45.0086C43.5093 44.2645 42.6285 43.6744 41.659 43.2719C40.6896 42.8695 39.6506 42.6626 38.6013 42.6632C37.5623 42.6608 36.5317 42.8507 35.5613 43.2234C34.8536 43.4966 34.1885 43.8697 33.586 44.3314C32.6756 45.0288 31.9347 45.9242 31.4193 46.9504C31.1556 47.4764 30.9545 48.0316 30.8201 48.6047C30.6814 49.1963 30.6118 49.802 30.6127 50.4097V61.2495C30.6076 61.5673 30.6657 61.8829 30.7835 62.178C30.9014 62.473 31.0766 62.7415 31.2991 62.9679C31.5215 63.1943 31.7867 63.3739 32.0791 63.4964C32.3715 63.6189 32.6853 63.6818 33.0022 63.6814C33.319 63.6809 33.6327 63.6172 33.9248 63.4939C34.2168 63.3706 34.4815 63.1902 34.7033 62.9632C34.9251 62.7362 35.0996 62.4672 35.2167 62.1719C35.3337 61.8765 35.3909 61.5608 35.385 61.243L35.2972 27.5311V27.5376C35.298 26.5073 35.0962 25.487 34.7034 24.535C34.3106 23.5831 33.7345 22.7181 33.0081 21.9896C32.2817 21.2611 31.4192 20.6835 30.47 20.2896C29.5207 19.8958 28.5034 19.6935 27.4761 19.6944H27.3361C26.0247 19.6917 24.7328 20.012 23.5737 20.6272C22.4147 21.2424 21.424 22.1337 20.6887 23.2228C19.7947 24.5457 19.3178 26.1075 19.3199 27.7057V68.0212H21.7064L23.2399 66.1879L14.4243 58.7673C12.8546 57.4453 10.8732 56.716 8.82354 56.7057C6.77388 56.6955 4.78528 57.405 3.2026 58.7113L4.71865 60.5599V58.1664C4.16571 58.1669 3.63004 58.3595 3.2026 58.7113C1.45068 60.1548 0.323676 62.2222 0.0576996 64.4804C-0.208276 66.7387 0.407406 69.0126 1.77577 70.8257L3.67917 69.3823L1.67059 70.6737L17.0603 94.7542C17.4685 95.3974 17.8089 96.0816 18.0759 96.7955C18.3506 97.5292 18.558 98.2866 18.6954 99.0581C19.403 102.971 21.459 106.511 24.5042 109.059C27.5495 111.606 31.3904 113 35.356 112.996H46.4609C50.4052 112.995 54.2256 111.614 57.2632 109.091C60.3007 106.567 62.3649 103.06 63.0997 99.173C63.3643 97.8014 63.8603 96.4851 64.5665 95.2809C65.5457 93.5916 66.6505 90.966 67.5123 86.9327C68.374 82.8994 68.9949 77.4518 68.9949 70.088V59.5792C68.9954 58.549 68.7934 57.5288 68.4006 56.5769C68.0077 55.625 67.4316 54.7601 66.7053 54.0316C65.9789 53.3031 65.1165 52.7253 64.1674 52.3313C63.2183 51.9373 62.2011 51.7347 61.1739 51.7352H61.0338C59.7225 51.7325 58.4305 52.0529 57.2715 52.6681C56.1124 53.2833 55.1217 54.1746 54.3864 55.2636C53.4923 56.5867 53.0154 58.1489 53.0176 59.7472V69.5024C53.0121 69.8202 53.0697 70.1359 53.1872 70.4311C53.3046 70.7263 53.4795 70.9951 53.7016 71.2218C53.9237 71.4484 54.1886 71.6285 54.4809 71.7514C54.7731 71.8743 55.0869 71.9376 55.4038 71.9376C55.7207 71.9376 56.0344 71.8743 56.3267 71.7514C56.6189 71.6285 56.8838 71.4484 57.106 71.2218C57.3281 70.9951 57.5029 70.7263 57.6204 70.4311C57.7378 70.1359 57.7955 69.8202 57.7899 69.5024H55.4092Z" fill="#231F20"/>
</g>
<defs>
<clipPath id="clip0_961_371">
<rect width="69" height="113" fill="white"/>
</clipPath>
</defs>
</svg>
